<svg width="24" height="21" viewBox="0 0 24 21" fill="none" xmlns="http://www.w3.org/2000/svg">
<path fill-rule="evenodd" clip-rule="evenodd" d="M7.41426 2.67396C7.69238 1.30937 8.90697 0.34375 10.2976 0.34375H13.7018C15.0924 0.34375 16.3059 1.30937 16.5851 2.67396C16.6159 2.82422 16.6963 2.95976 16.8134 3.05877C16.9306 3.15778 17.0776 3.21449 17.2309 3.21979H17.2653C18.7268 3.28437 19.8497 3.46354 20.7872 4.07917C21.3778 4.46667 21.8861 4.96458 22.282 5.54687C22.7747 6.26979 22.9913 7.10104 23.0955 8.10521C23.1976 9.0875 23.1976 10.3177 23.1976 11.876V11.9646C23.1976 13.5229 23.1976 14.7542 23.0955 15.7354C22.9913 16.7396 22.7747 17.5708 22.282 18.2948C21.884 18.8766 21.3762 19.3752 20.7872 19.7625C20.0549 20.2427 19.2143 20.4552 18.1955 20.5562C17.1976 20.6562 15.9466 20.6562 14.357 20.6562H9.64238C8.0528 20.6562 6.80176 20.6562 5.80384 20.5562C4.78509 20.4552 3.94447 20.2437 3.21217 19.7625C2.62305 19.3749 2.11529 18.876 1.71738 18.2937C1.22467 17.5708 1.00801 16.7396 0.903841 15.7354C0.801758 14.7542 0.801758 13.5229 0.801758 11.9646V11.876C0.801758 10.3177 0.801758 9.0875 0.903841 8.10521C1.00801 7.10104 1.22467 6.26979 1.71738 5.54687C2.11529 4.96465 2.62305 4.46574 3.21217 4.07812C4.14967 3.46354 5.27259 3.28437 6.73405 3.22083L6.75176 3.21979H6.76842C6.92171 3.21449 7.06876 3.15778 7.18591 3.05877C7.30306 2.95976 7.38349 2.82422 7.41426 2.67396ZM10.2976 1.90625C9.63093 1.90625 9.07155 2.36771 8.94551 2.98542C8.74238 3.98542 7.85488 4.77292 6.78717 4.78229C5.38301 4.84479 4.63092 5.01667 4.06842 5.38542C3.65118 5.66034 3.29138 6.01377 3.00905 6.42604C2.72155 6.84792 2.54863 7.38854 2.45697 8.26667C2.3653 9.15833 2.36426 10.3083 2.36426 11.9208C2.36426 13.5333 2.36426 14.6823 2.45801 15.574C2.54863 16.4521 2.72155 16.9927 3.01009 17.4156C3.28926 17.826 3.64863 18.1802 4.06947 18.4562C4.50384 18.7406 5.06009 18.9125 5.95905 19.0021C6.86947 19.0927 8.04238 19.0938 9.68509 19.0938H14.3143C15.9559 19.0938 17.1288 19.0938 18.0403 19.0021C18.9393 18.9125 19.4955 18.7417 19.9299 18.4562C20.3507 18.1802 20.7111 17.826 20.9903 17.4146C21.2778 16.9927 21.4507 16.4521 21.5424 15.574C21.6341 14.6823 21.6351 13.5323 21.6351 11.9208C21.6351 10.3094 21.6351 9.15833 21.5413 8.26667C21.4507 7.38854 21.2778 6.84792 20.9893 6.42604C20.707 6.0134 20.3472 5.65961 19.9299 5.38438C19.3695 5.01667 18.6174 4.84479 17.2111 4.78229C16.1445 4.77187 15.257 3.98646 15.0538 2.98542C14.9872 2.67737 14.8162 2.40176 14.5699 2.20515C14.3236 2.00853 14.0169 1.90296 13.7018 1.90625H10.2976ZM11.9997 9.19792C11.3781 9.19792 10.7819 9.44485 10.3424 9.88439C9.90286 10.3239 9.65592 10.9201 9.65592 11.5417C9.65592 12.1633 9.90286 12.7594 10.3424 13.1989C10.7819 13.6385 11.3781 13.8854 11.9997 13.8854C12.6213 13.8854 13.2174 13.6385 13.657 13.1989C14.0965 12.7594 14.3434 12.1633 14.3434 11.5417C14.3434 10.9201 14.0965 10.3239 13.657 9.88439C13.2174 9.44485 12.6213 9.19792 11.9997 9.19792ZM8.09342 11.5417C8.09342 10.5057 8.50498 9.51209 9.23754 8.77953C9.9701 8.04697 10.9637 7.63542 11.9997 7.63542C13.0357 7.63542 14.0292 8.04697 14.7618 8.77953C15.4944 9.51209 15.9059 10.5057 15.9059 11.5417C15.9059 12.5777 15.4944 13.5712 14.7618 14.3038C14.0292 15.0364 13.0357 15.4479 11.9997 15.4479C10.9637 15.4479 9.9701 15.0364 9.23754 14.3038C8.50498 13.5712 8.09342 12.5777 8.09342 11.5417ZM17.4684 8.41667C17.4684 8.20947 17.5507 8.01075 17.6972 7.86424C17.8438 7.71773 18.0425 7.63542 18.2497 7.63542H19.2913C19.4985 7.63542 19.6973 7.71773 19.8438 7.86424C19.9903 8.01075 20.0726 8.20947 20.0726 8.41667C20.0726 8.62387 19.9903 8.82258 19.8438 8.96909C19.6973 9.11561 19.4985 9.19792 19.2913 9.19792H18.2497C18.0425 9.19792 17.8438 9.11561 17.6972 8.96909C17.5507 8.82258 17.4684 8.62387 17.4684 8.41667Z" fill="#364153"/>
</svg>
