<svg width="24" height="25" viewBox="0 0 24 25" fill="none" xmlns="http://www.w3.org/2000/svg">
<path d="M11.9998 13.9L7.0998 18.8C6.91647 18.9834 6.68314 19.075 6.3998 19.075C6.11647 19.075 5.88314 18.9834 5.6998 18.8C5.51647 18.6167 5.4248 18.3834 5.4248 18.1C5.4248 17.8167 5.51647 17.5834 5.6998 17.4L10.5998 12.5L5.6998 7.60005C5.51647 7.41672 5.4248 7.18338 5.4248 6.90005C5.4248 6.61672 5.51647 6.38338 5.6998 6.20005C5.88314 6.01672 6.11647 5.92505 6.3998 5.92505C6.68314 5.92505 6.91647 6.01672 7.0998 6.20005L11.9998 11.1L16.8998 6.20005C17.0831 6.01672 17.3165 5.92505 17.5998 5.92505C17.8831 5.92505 18.1165 6.01672 18.2998 6.20005C18.4831 6.38338 18.5748 6.61672 18.5748 6.90005C18.5748 7.18338 18.4831 7.41672 18.2998 7.60005L13.3998 12.5L18.2998 17.4C18.4831 17.5834 18.5748 17.8167 18.5748 18.1C18.5748 18.3834 18.4831 18.6167 18.2998 18.8C18.1165 18.9834 17.8831 19.075 17.5998 19.075C17.3165 19.075 17.0831 18.9834 16.8998 18.8L11.9998 13.9Z" fill="#364153"/>
</svg>
