<svg width="34" height="41" viewBox="0 0 34 41" fill="none" xmlns="http://www.w3.org/2000/svg">
<path d="M12.0835 19.5V18.4167C12.0835 16.9801 12.6542 15.6023 13.67 14.5865C14.6858 13.5707 16.0636 13 17.5002 13M17.5002 13C18.9368 13 20.3145 13.5707 21.3303 14.5865C22.3461 15.6023 22.9168 16.9801 22.9168 18.4167V19.5M17.5002 13C18.3621 13 19.1888 12.6576 19.7983 12.0481C20.4078 11.4386 20.7502 10.612 20.7502 9.75C20.7502 8.88805 20.4078 8.0614 19.7983 7.4519C19.1888 6.84241 18.3621 6.5 17.5002 6.5C16.6382 6.5 15.8116 6.84241 15.2021 7.4519C14.5926 8.0614 14.2502 8.88805 14.2502 9.75C14.2502 10.612 14.5926 11.4386 15.2021 12.0481C15.8116 12.6576 16.6382 13 17.5002 13ZM5.5835 19.5V18.4167C5.5835 17.5547 5.92591 16.7281 6.5354 16.1186C7.14489 15.5091 7.97154 15.1667 8.8335 15.1667M8.8335 15.1667C9.40813 15.1667 9.95923 14.9384 10.3656 14.5321C10.7719 14.1257 11.0002 13.5746 11.0002 13C11.0002 12.4254 10.7719 11.8743 10.3656 11.4679C9.95923 11.0616 9.40813 10.8333 8.8335 10.8333C8.25886 10.8333 7.70776 11.0616 7.30143 11.4679C6.8951 11.8743 6.66683 12.4254 6.66683 13C6.66683 13.5746 6.8951 14.1257 7.30143 14.5321C7.70776 14.9384 8.25886 15.1667 8.8335 15.1667ZM29.4168 19.5V18.4167C29.4168 17.5547 29.0744 16.7281 28.4649 16.1186C27.8554 15.5091 27.0288 15.1667 26.1668 15.1667M26.1668 15.1667C26.7415 15.1667 27.2926 14.9384 27.6989 14.5321C28.1052 14.1257 28.3335 13.5746 28.3335 13C28.3335 12.4254 28.1052 11.8743 27.6989 11.4679C27.2926 11.0616 26.7415 10.8333 26.1668 10.8333C25.5922 10.8333 25.0411 11.0616 24.6348 11.4679C24.2284 11.8743 24.0002 12.4254 24.0002 13C24.0002 13.5746 24.2284 14.1257 24.6348 14.5321C25.0411 14.9384 25.5922 15.1667 26.1668 15.1667Z" stroke="currentColor" stroke-width="2" stroke-linecap="round" stroke-linejoin="round"/>
<path d="M4.82422 31.8613C4.82096 32.8509 4.70703 33.7412 4.48242 34.5322C4.26107 35.32 3.86068 36.054 3.28125 36.7344C2.70508 37.4147 1.9043 38.0202 0.878906 38.5508L0.195312 37.6133C0.888672 37.2454 1.46159 36.8532 1.91406 36.4365C2.36979 36.0199 2.72786 35.5625 2.98828 35.0645L0.410156 35.2988L0.244141 34.2441L3.37891 34.0586C3.47656 33.7005 3.54329 33.3001 3.5791 32.8574H0.722656V31.8613H4.82422ZM7.75391 39.8984H6.51367V35.4453H4.80469V34.4297H6.51367V31.0117H7.75391V39.8984ZM17.0312 36.9688H15.1953V39.918H13.9453V36.9688H12.0312V39.918H10.7812V36.9688H8.89648V35.9727H17.0312V36.9688ZM16.0547 35.0156H9.85352V31.4316H16.0547V35.0156ZM11.084 34.0195H14.8145V32.418H11.084V34.0195ZM25.0195 39.8984H23.7793V31.0117H25.0195V39.8984ZM19.2578 36.6416C20.5762 36.6188 21.8424 36.4902 23.0566 36.2559L23.2129 37.2812C21.875 37.5612 20.4622 37.7012 18.9746 37.7012H18.8086H18.0273V31.8613H19.2578V36.6416ZM31.2012 32.7598H27.9102V34.2246H30.8301V35.2012H27.9102V36.8809C28.6523 36.8743 29.3066 36.8532 29.873 36.8174C30.4395 36.7816 31.0156 36.7181 31.6016 36.627L31.7188 37.6328C31.0645 37.7272 30.4085 37.7923 29.751 37.8281C29.0967 37.8607 28.3268 37.877 27.4414 37.877H26.6797V31.7441H31.2012V32.7598ZM33.6621 39.8984H32.4023V31.0117H33.6621V39.8984Z" fill="currentColor"/>
</svg>
