<svg width="27" height="41" viewBox="0 0 27 41" fill="none" xmlns="http://www.w3.org/2000/svg">
<path d="M7.00016 20.5834H10.2502V15.1667C10.2502 14.8598 10.3542 14.6027 10.5622 14.3954C10.7702 14.1881 11.0273 14.0841 11.3335 14.0834H15.6668C15.9738 14.0834 16.2312 14.1874 16.4392 14.3954C16.6472 14.6034 16.7509 14.8605 16.7502 15.1667V20.5834H20.0002V10.8334L13.5002 5.95841L7.00016 10.8334V20.5834ZM4.8335 20.5834V10.8334C4.8335 10.4904 4.91041 10.1654 5.06425 9.85842C5.21808 9.55147 5.43005 9.29869 5.70016 9.10008L12.2002 4.22508C12.5793 3.93619 13.0127 3.79175 13.5002 3.79175C13.9877 3.79175 14.421 3.93619 14.8002 4.22508L21.3002 9.10008C21.571 9.29869 21.7833 9.55147 21.9372 9.85842C22.091 10.1654 22.1676 10.4904 22.1668 10.8334V20.5834C22.1668 21.1792 21.9545 21.6895 21.5298 22.1142C21.1052 22.5388 20.5953 22.7508 20.0002 22.7501H15.6668C15.3599 22.7501 15.1028 22.6461 14.8955 22.4381C14.6882 22.2301 14.5842 21.973 14.5835 21.6667V16.2501H12.4168V21.6667C12.4168 21.9737 12.3128 22.2312 12.1048 22.4392C11.8968 22.6472 11.6397 22.7508 11.3335 22.7501H7.00016C6.40433 22.7501 5.89444 22.5381 5.4705 22.1142C5.04655 21.6902 4.83422 21.18 4.8335 20.5834Z" fill="currentColor"/>
<path d="M16.5811 37.1934V39.8008H10.3799V37.1934H16.5811ZM11.6104 38.1211V38.873H15.3604V38.1211H11.6104ZM17.1279 31.6465V32.584H9.83301V31.6465H12.8701V30.9336H14.1201V31.6465H17.1279ZM13.4951 32.8086C15.4189 32.8184 16.4834 33.2383 16.4834 34.0781C16.4834 34.8203 15.6484 35.2451 14.1201 35.3281V35.7676H17.5479V36.7441H9.44238V35.7676H12.8701V35.3281C11.3467 35.2451 10.4971 34.8203 10.5068 34.0781C10.4971 33.2383 11.5811 32.8184 13.4951 32.8086ZM13.4951 33.6484C12.3721 33.6484 11.835 33.7656 11.835 34.0781C11.835 34.3809 12.3721 34.5078 13.4951 34.5078C14.6279 34.5078 15.1455 34.3809 15.1455 34.0781C15.1455 33.7656 14.6279 33.6484 13.4951 33.6484Z" fill="currentColor"/>
</svg>
