<svg width="175" height="31" viewBox="0 0 175 31" fill="none" xmlns="http://www.w3.org/2000/svg">
<path d="M12.5006 31C7.99704 31 3.53553 29.5 0 26.3333L3.83016 21.7917C6.5239 23.9583 9.25972 25.3333 12.6269 25.3333C15.3206 25.3333 16.878 24.2917 16.878 22.5833V22.5C16.878 20.875 15.8678 20 10.9433 18.7917C4.96658 17.3333 1.17851 15.625 1.17851 9.875V9.79167C1.17851 4.5 5.42956 1 11.4905 1C15.8257 1 19.4033 2.33333 22.4338 4.70833L19.0666 9.54167C16.415 7.75 13.9317 6.66667 11.4063 6.66667C8.88092 6.66667 7.61823 7.75 7.61823 9.20833V9.29167C7.61823 11.25 8.88092 11.7917 13.9738 13.125C19.9505 14.7083 23.3177 16.7917 23.3177 21.875V21.9583C23.3177 27.75 18.8562 31 12.5006 31Z" fill="#FFBA42"/>
<path d="M31.0474 30.5833V1.41667H43.085C50.114 1.41667 54.365 5.5 54.365 11.5V11.5833C54.365 18.375 49.0617 21.8333 42.4537 21.8333H37.5292V30.5833H31.0474ZM37.5292 16.125H42.6641C45.905 16.125 47.799 14.2083 47.799 11.7083V11.625C47.799 8.75 45.7787 7.20833 42.5378 7.20833H37.5292V16.125Z" fill="#FFBA42"/>
<path d="M98.9651 30.5833V7.33333H90V1.41667H114.412V7.33333H105.447V30.5833H98.9651Z" fill="#FFBA42"/>
<path d="M115.195 30.5833L127.822 1.20833H133.798L146.425 30.5833H139.649L136.955 24.0417H124.496L121.803 30.5833H115.195ZM126.811 18.375H134.64L130.726 8.91667L126.811 18.375Z" fill="#FFBA42"/>
<path d="M153.077 30.5833V1.41667H159.559V24.75H174.248V30.5833H153.077Z" fill="#FFBA42"/>
<path d="M82.0455 3.98914C84.5239 6.48931 85.9414 9.86394 85.9982 13.3995C86.055 16.935 84.7467 20.3542 82.35 22.9341L82.0455 23.2519L75.6811 29.6713C74.8736 30.4855 73.7895 30.9596 72.6485 30.9975C71.5074 31.0355 70.3947 30.6344 69.5358 29.8756L69.3198 29.6713L62.954 23.2504C60.4223 20.6962 59 17.232 59 13.6198C59 10.0076 60.4223 6.54334 62.954 3.98914C65.4857 1.43494 68.9194 0 72.4997 0C76.0801 0 79.5138 1.43494 82.0455 3.98914ZM72.4997 9.07987C71.9088 9.07987 71.3237 9.1973 70.7777 9.42545C70.2317 9.6536 69.7357 9.98801 69.3178 10.4096C68.9 10.8311 68.5685 11.3316 68.3424 11.8824C68.1162 12.4332 67.9998 13.0236 67.9998 13.6198C67.9998 14.216 68.1162 14.8063 68.3424 15.3571C68.5685 15.9079 68.9 16.4084 69.3178 16.83C69.7357 17.2515 70.2317 17.5859 70.7777 17.8141C71.3237 18.0422 71.9088 18.1597 72.4997 18.1597C73.6932 18.1597 74.8377 17.6814 75.6816 16.83C76.5255 15.9786 76.9996 14.8238 76.9996 13.6198C76.9996 12.4157 76.5255 11.261 75.6816 10.4096C74.8377 9.55818 73.6932 9.07987 72.4997 9.07987Z" fill="#FFBA42"/>
</svg>
