<svg width="23" height="28" viewBox="0 0 23 28" fill="none" xmlns="http://www.w3.org/2000/svg">
<path d="M11.5 14.5C14.5993 14.5 17.3815 15.2659 19.3721 16.4775C21.3713 17.6946 22.5 19.3082 22.5 21C22.5 22.6918 21.3713 24.3054 19.3721 25.5225C17.3815 26.7341 14.5993 27.5 11.5 27.5C8.40068 27.5 5.61851 26.7341 3.62793 25.5225C1.62868 24.3054 0.5 22.6918 0.5 21C0.5 19.3082 1.62868 17.6946 3.62793 16.4775C5.61851 15.2659 8.40068 14.5 11.5 14.5Z" fill="#EFEFEF" fill-opacity="0.72" stroke="#828282"/>
<path d="M12 10C10.9 10 10 9.1 10 8C10 6.9 10.9 6 12 6C13.1 6 14 6.9 14 8C14 9.1 13.1 10 12 10ZM12 0C7.8 0 4 3.22 4 8.2C4 11.52 6.67 15.45 12 20C17.33 15.45 20 11.52 20 8.2C20 3.22 16.2 0 12 0Z" fill="#828282"/>
</svg>
