<svg width="20" height="20" viewBox="0 0 20 20" fill="none" xmlns="http://www.w3.org/2000/svg">
<path d="M2.4999 9.99985C2.4999 14.142 5.85775 17.4999 9.99989 17.4999C11.3456 17.4999 12.607 17.1456 13.6985 16.5263C13.7602 16.4911 13.8283 16.4686 13.8988 16.46C13.9693 16.4514 14.0408 16.457 14.1092 16.4763L17.4192 17.4177L16.4778 14.1077C16.4583 14.0392 16.4528 13.9676 16.4614 13.897C16.4699 13.8263 16.4925 13.7581 16.5278 13.6963C17.1671 12.5694 17.5021 11.2955 17.4999 9.99985C17.4999 5.85771 14.142 2.49985 9.99989 2.49985C5.85775 2.49985 2.4999 5.85771 2.4999 9.99985ZM9.99989 18.5713C5.26632 18.5713 1.42847 14.7334 1.42847 9.99985C1.42847 5.26628 5.26632 1.42842 9.99989 1.42842C14.7335 1.42842 18.5713 5.26628 18.5713 9.99985C18.5733 11.4041 18.2289 12.7871 17.5685 14.0263L18.5378 17.4334C18.5812 17.5864 18.583 17.7481 18.543 17.902C18.503 18.0559 18.4227 18.1963 18.3102 18.3088C18.1978 18.4212 18.0574 18.5015 17.9035 18.5415C17.7496 18.5815 17.5878 18.5797 17.4349 18.5363L14.0278 17.5677C12.7882 18.2286 11.4046 18.5733 9.99989 18.5713Z" fill="#828282"/>
</svg>
