<svg width="16" height="16" viewBox="0 0 16 16" fill="none" xmlns="http://www.w3.org/2000/svg">
<path d="M0.999976 8C0.999976 11.866 4.1339 15 7.99981 15C9.25578 15 10.4331 14.6693 11.4517 14.0913C11.5093 14.0585 11.5729 14.0375 11.6387 14.0295C11.7045 14.0215 11.7713 14.0266 11.8351 14.0447L14.9243 14.9233L14.0457 11.834C14.0275 11.7701 14.0223 11.7032 14.0304 11.6373C14.0384 11.5714 14.0594 11.5077 14.0923 11.45C14.6891 10.3982 15.0017 9.20925 14.9996 8C14.9996 4.134 11.8657 0.999998 7.99981 0.999998C4.1339 0.999998 0.999976 4.134 0.999976 8ZM7.99981 16C3.58191 16 0 12.418 0 8C0 3.582 3.58191 0 7.99981 0C12.4177 0 15.9996 3.582 15.9996 8C16.0015 9.31058 15.68 10.6014 15.0636 11.758L15.9683 14.938C16.0088 15.0807 16.0105 15.2317 15.9732 15.3754C15.9359 15.519 15.8609 15.65 15.7559 15.755C15.651 15.8599 15.52 15.9349 15.3763 15.9722C15.2327 16.0096 15.0817 16.0079 14.939 15.9673L11.7591 15.0633C10.6021 15.6801 9.31087 16.0019 7.99981 16Z" fill="#ADADAD"/>
</svg>
