<svg width="20" height="20" viewBox="0 0 20 20" fill="none" xmlns="http://www.w3.org/2000/svg">
<path d="M1.27808 10C1.27808 5.18363 5.18341 1.2784 9.99976 1.27832C14.8162 1.27832 18.7214 5.18359 18.7214 10C18.7234 11.4086 18.3818 12.7958 17.7283 14.043L18.6824 17.3926C18.733 17.5711 18.7349 17.7599 18.6882 17.9395C18.6415 18.1191 18.548 18.2837 18.4167 18.415C18.2854 18.5464 18.1209 18.6398 17.9412 18.6865C17.7616 18.7332 17.5728 18.7313 17.3943 18.6807L14.0437 17.7285C12.7964 18.3822 11.4086 18.7237 9.99976 18.7217L9.55151 18.71C4.94349 18.4766 1.27815 14.666 1.27808 10ZM2.65015 10C2.65023 14.0592 5.94057 17.3495 9.99976 17.3496C11.3185 17.3496 12.5545 17.0031 13.6238 16.3965V16.3955C13.7028 16.3505 13.7904 16.3225 13.8806 16.3115C13.9258 16.306 13.9712 16.3051 14.0164 16.3086L14.1501 16.332L17.2009 17.2002L16.3337 14.1484C16.3089 14.0609 16.3013 13.9693 16.3123 13.8789C16.3232 13.7885 16.3522 13.7012 16.3972 13.6221L16.5115 13.4131C17.0636 12.3615 17.3524 11.1901 17.3503 10L17.3406 9.62207C17.144 5.73833 13.9324 2.64941 9.99976 2.64941C5.94052 2.64949 2.65015 5.94075 2.65015 10Z" fill="#ADADAD" stroke="#ADADAD" stroke-width="0.3"/>
</svg>
