<svg width="27" height="41" viewBox="0 0 27 41" fill="none" xmlns="http://www.w3.org/2000/svg">
<path fill-rule="evenodd" clip-rule="evenodd" d="M17.8337 9.74984C17.8337 10.8991 17.3771 12.0013 16.5645 12.814C15.7518 13.6266 14.6496 14.0832 13.5003 14.0832C12.3511 14.0832 11.2489 13.6266 10.4362 12.814C9.62354 12.0013 9.16699 10.8991 9.16699 9.74984C9.16699 8.60057 9.62354 7.49837 10.4362 6.68571C11.2489 5.87305 12.3511 5.4165 13.5003 5.4165C14.6496 5.4165 15.7518 5.87305 16.5645 6.68571C17.3771 7.49837 17.8337 8.60057 17.8337 9.74984ZM15.667 9.74984C15.667 10.3245 15.4387 10.8756 15.0324 11.2819C14.6261 11.6882 14.075 11.9165 13.5003 11.9165C12.9257 11.9165 12.3746 11.6882 11.9683 11.2819C11.5619 10.8756 11.3337 10.3245 11.3337 9.74984C11.3337 9.1752 11.5619 8.6241 11.9683 8.21777C12.3746 7.81144 12.9257 7.58317 13.5003 7.58317C14.075 7.58317 14.6261 7.81144 15.0324 8.21777C15.4387 8.6241 15.667 9.1752 15.667 9.74984Z" fill="currentColor"/>
<path fill-rule="evenodd" clip-rule="evenodd" d="M13.5002 1.08325C6.91891 1.08325 1.5835 6.41867 1.5835 12.9999C1.5835 19.5812 6.91891 24.9166 13.5002 24.9166C20.0814 24.9166 25.4168 19.5812 25.4168 12.9999C25.4168 6.41867 20.0814 1.08325 13.5002 1.08325ZM3.75016 12.9999C3.75016 15.2641 4.52258 17.3484 5.81716 19.0037C6.72656 17.8101 7.8995 16.8427 9.24444 16.177C10.5894 15.5114 12.0699 15.1656 13.5706 15.1666C15.0519 15.1649 16.5141 15.5014 17.8456 16.1507C19.177 16.7999 20.3427 17.7446 21.2536 18.9128C22.1922 17.6817 22.8242 16.2447 23.0973 14.7209C23.3704 13.197 23.2766 11.6301 22.8239 10.1497C22.3711 8.66922 21.5723 7.31789 20.4936 6.20746C19.4149 5.09703 18.0873 4.25943 16.6206 3.76397C15.1539 3.26851 13.5903 3.12942 12.0592 3.35822C10.5281 3.58702 9.07344 4.17713 7.81566 5.07973C6.55789 5.98232 5.53312 7.17144 4.82616 8.54871C4.1192 9.92598 3.75036 11.4518 3.75016 12.9999ZM13.5002 22.7499C11.2619 22.7535 9.09115 21.9835 7.3555 20.5703C8.05404 19.5699 8.98395 18.7532 10.0661 18.1896C11.1482 17.626 12.3505 17.3322 13.5706 17.3333C14.7754 17.3322 15.9632 17.6187 17.0351 18.1688C18.107 18.719 19.0321 19.517 19.7337 20.4966C17.9846 21.9558 15.778 22.7535 13.5002 22.7499Z" fill="currentColor"/>
<path d="M9.31445 37.7305H5.04688V31.8516H9.31445V37.7305ZM6.27734 36.7441H8.07422V32.8281H6.27734V36.7441ZM11.7754 34.3613H13.084V35.3965H11.7754V39.8984H10.5254V31.0117H11.7754V34.3613ZM20.8477 39.918H19.5879V31.0117H20.8477V39.918ZM16.0234 31.6367C16.4694 31.6367 16.8682 31.7669 17.2197 32.0273C17.5745 32.2878 17.8529 32.6572 18.0547 33.1357C18.2565 33.6143 18.3574 34.1693 18.3574 34.8008C18.3574 35.4388 18.2565 35.9987 18.0547 36.4805C17.8529 36.959 17.5745 37.3285 17.2197 37.5889C16.8682 37.846 16.4694 37.9746 16.0234 37.9746C15.5677 37.9746 15.1608 37.846 14.8027 37.5889C14.4447 37.3285 14.1647 36.959 13.9629 36.4805C13.7643 35.9987 13.6667 35.4388 13.6699 34.8008C13.6667 34.1693 13.7643 33.6143 13.9629 33.1357C14.1647 32.6572 14.4447 32.2878 14.8027 32.0273C15.1608 31.7669 15.5677 31.6367 16.0234 31.6367ZM16.0234 32.7598C15.7923 32.7598 15.5889 32.8395 15.4131 32.999C15.2406 33.1553 15.1071 33.3864 15.0127 33.6924C14.9183 33.9984 14.8711 34.3678 14.8711 34.8008C14.8711 35.237 14.9183 35.6081 15.0127 35.9141C15.1071 36.2201 15.2406 36.4512 15.4131 36.6074C15.5889 36.7637 15.7923 36.8418 16.0234 36.8418C16.2513 36.8418 16.4499 36.7637 16.6191 36.6074C16.7884 36.4479 16.9202 36.2152 17.0146 35.9092C17.109 35.6032 17.1562 35.2337 17.1562 34.8008C17.1562 34.3711 17.109 34.0033 17.0146 33.6973C16.9202 33.388 16.7868 33.1553 16.6143 32.999C16.445 32.8395 16.248 32.7598 16.0234 32.7598Z" fill="currentColor"/>
</svg>
