<svg width="7" height="16" viewBox="0 0 7 16" fill="none" xmlns="http://www.w3.org/2000/svg">
<path d="M6.29252 15.3582C6.38522 15.2315 6.45877 15.0811 6.50895 14.9156C6.55913 14.75 6.58496 14.5725 6.58496 14.3932C6.58496 14.214 6.55913 14.0365 6.50895 13.8709C6.45877 13.7053 6.38522 13.5549 6.29252 13.4283L2.41252 8.1176L6.29252 2.80694C6.47949 2.55102 6.58454 2.20391 6.58454 1.84199C6.58454 1.48006 6.47949 1.13295 6.29252 0.87703C6.10554 0.621109 5.85194 0.477336 5.58752 0.477336C5.32309 0.477336 5.06949 0.621109 4.88252 0.87703L0.292517 7.15949C0.199813 7.28612 0.126266 7.43653 0.0760841 7.60211C0.0259027 7.76769 7.34329e-05 7.94519 7.34329e-05 8.12445C7.34329e-05 8.30371 0.0259027 8.48121 0.0760841 8.64679C0.126266 8.81237 0.199813 8.96277 0.292517 9.0894L4.88252 15.3719C5.26252 15.892 5.90252 15.892 6.29252 15.3582Z" fill="#353E4B"/>
</svg>
